# This file uses centimeters as units for non-parametric coordinates.

mtllib Wire_Vertical_v001.mtl
g default
v 0.487442 1.000000 0.014500
v 0.474885 1.000000 0.007250
v 0.474885 1.000000 -0.007250
v 0.487442 1.000000 -0.014500
v 0.500000 1.000000 -0.007250
v 0.500000 1.000000 0.007250
v 0.487442 0.500000 0.014500
v 0.474885 0.500000 0.007250
v 0.474885 0.500000 -0.007250
v 0.487442 0.500000 -0.014500
v 0.500000 0.500000 -0.007250
v 0.500000 0.500000 0.007250
v 0.487442 0.000000 0.014500
v 0.474885 0.000000 0.007250
v 0.474885 0.000000 -0.007250
v 0.487442 0.000000 -0.014500
v 0.500000 0.000000 -0.007250
v 0.500000 0.000000 0.007250
vt 0.000000 0.000000
vt 0.014500 0.000000
vt 0.029000 0.000000
vt 0.043500 0.000000
vt 0.058000 0.000000
vt 0.072500 0.000000
vt 0.087000 0.000000
vt 0.000000 0.500000
vt 0.014500 0.500000
vt 0.029000 0.500000
vt 0.043500 0.500000
vt 0.058000 0.500000
vt 0.072500 0.500000
vt 0.087000 0.500000
vt 0.000000 1.000000
vt 0.014500 1.000000
vt 0.029000 1.000000
vt 0.043500 1.000000
vt 0.058000 1.000000
vt 0.072500 1.000000
vt 0.087000 1.000000
vn -0.500011 0.000000 0.866019
vn -0.866031 0.000000 0.499990
vn -0.866031 0.000000 0.499990
vn -0.500011 0.000000 0.866019
vn -0.866031 0.000000 -0.499990
vn -0.866031 0.000000 -0.499990
vn -0.500010 0.000000 -0.866020
vn -0.500010 0.000000 -0.866020
vn 0.499996 0.000000 -0.866028
vn 0.866023 0.000000 -0.500004
vn 0.866023 0.000000 -0.500004
vn 0.499996 0.000000 -0.866028
vn 0.866023 0.000000 0.500004
vn 0.866023 0.000000 0.500004
vn 0.499996 0.000000 0.866028
vn 0.499996 0.000000 0.866028
vn -0.866031 0.000000 0.499990
vn -0.500011 0.000000 0.866019
vn -0.866031 0.000000 -0.499990
vn -0.500010 0.000000 -0.866020
vn 0.866023 0.000000 -0.500004
vn 0.499996 0.000000 -0.866028
vn 0.866023 0.000000 0.500004
vn 0.499996 0.000000 0.866028
s 1
g Wire_Vertical_GEO
usemtl initialShadingGroup
f 1/1/1 2/2/2 8/9/3 7/8/4
f 2/2/2 3/3/5 9/10/6 8/9/3
f 3/3/5 4/4/7 10/11/8 9/10/6
s 2
f 4/4/9 5/5/10 11/12/11 10/11/12
f 5/5/10 6/6/13 12/13/14 11/12/11
f 6/6/13 1/7/15 7/14/16 12/13/14
s 1
f 7/8/4 8/9/3 14/16/17 13/15/18
f 8/9/3 9/10/6 15/17/19 14/16/17
f 9/10/6 10/11/8 16/18/20 15/17/19
s 2
f 10/11/12 11/12/11 17/19/21 16/18/22
f 11/12/11 12/13/14 18/20/23 17/19/21
f 12/13/14 7/14/16 13/21/24 18/20/23
